<svg xmlns="http://www.w3.org/2000/svg" viewBox="0 0 48 48"><path d="M35.646 23.548a11.01 11.01 0 1 1-17.154-9.141.5.5 0 1 1 .559.829 10.01 10.01 0 1 0 11.17 0 .5.5 0 1 1 .558-.829 11 11 0 0 1 4.867 9.141Zm-11.01-.148a.5.5 0 0 0 .5-.5v-9.861a.5.5 0 1 0-1 0V22.9a.5.5 0 0 0 .5.5ZM8.844 31.02a.5.5 0 0 0-.9.43 18.628 18.628 0 0 0 5.891 7.072.5.5 0 0 0 .586-.811 17.612 17.612 0 0 1-5.577-6.691Zm31.263-7.472A15.472 15.472 0 1 1 24.636 8.077a15.488 15.488 0 0 1 15.471 15.471Zm-1 0a14.472 14.472 0 1 0-14.471 14.471 14.487 14.487 0 0 0 14.471-14.471ZM16.238 38.924a.5.5 0 1 0 .5.5.5.5 0 0 0-.5-.5ZM34.575 9.076a.5.5 0 1 0-.5-.5.5.5 0 0 0 .5.5Zm1.684 1.29a.5.5 0 1 0-.5-.5.5.5 0 0 0 .5.5Zm1.6 1.538a.5.5 0 1 0-.5-.5.5.5 0 0 0 .502.496Z" data-name="Power Button"/></svg>