<svg xmlns="http://www.w3.org/2000/svg" data-name="Layer 1" viewBox="0 0 64 64"><rect width="48" height="48" x="8" y="8" fill="#ffcc40" transform="rotate(90 32 32)"/><rect width="40" height="40" x="12" y="12" fill="#94e6ff"/><rect width="40" height="3" x="12" y="12" fill="#5cb7e6"/><polygon fill="#fc7a71" points="22 52 12 52 12 42 22 52"/><path fill="#0a1827" d="M52,11H12a1,1,0,0,0-1,1V52a1,1,0,0,0,1,1H52a1,1,0,0,0,1-1V12A1,1,0,0,0,52,11ZM13,51V44.41L19.59,51Zm38,0H22.41L13,41.59V13H51Z"/><path fill="#0a1827" d="M61,13a1,1,0,0,0,0-2H57V8a1,1,0,0,0-1-1H53V3a1,1,0,0,0-2,0V7H33V3a1,1,0,0,0-2,0V7H13V3a1,1,0,0,0-2,0V7H8A1,1,0,0,0,7,8v3H3a1,1,0,0,0,0,2H7V31H3a1,1,0,0,0,0,2H7V51H3a1,1,0,0,0,0,2H7v3a1,1,0,0,0,1,1h3v4a1,1,0,0,0,2,0V57H31v4a1,1,0,0,0,2,0V57H51v4a1,1,0,0,0,2,0V57h3a1,1,0,0,0,1-1V53h4a1,1,0,0,0,0-2H57V33h4a1,1,0,0,0,0-2H57V13ZM55,55H9V9H55Z"/></svg>